<?xml version="1.0" standalone="no"?>
<!DOCTYPE svg PUBLIC "-//W3C//DTD SVG 20010904//EN"
 "http://www.w3.org/TR/2001/REC-SVG-20010904/DTD/svg10.dtd">
<svg version="1.0" xmlns="http://www.w3.org/2000/svg"
 width="1801.000000pt" height="1801.000000pt" viewBox="0 0 1801.000000 1801.000000"
 preserveAspectRatio="xMidYMid meet">
<metadata>
Created by potrace 1.14, written by Peter Selinger 2001-2017
</metadata>
<g transform="translate(0.000000,1801.000000) scale(0.100000,-0.100000)"
fill="#000000" stroke="none">
<path d="M39 12298 c-16 -12 -20 -27 -34 -121 -6 -36 -4 -40 88 -132 l93 -96
125 -31 c68 -17 125 -32 127 -33 8 -6 19 -197 28 -460 5 -161 5 -888 -1 -1050
-5 -165 -15 -383 -21 -460 -12 -168 -18 -241 -29 -335 -2 -19 -7 -60 -11 -90
-3 -30 -12 -91 -20 -135 -22 -123 -24 -117 74 -214 85 -85 113 -103 187 -115
30 -5 65 15 65 38 0 23 70 157 79 152 8 -5 189 -46 266 -60 178 -33 343 -53
480 -57 113 -3 256 83 440 266 143 142 164 166 237 270 61 88 107 173 133 250
23 68 30 173 15 219 -14 42 -203 240 -244 256 -66 25 -75 22 -140 -40 -34 -32
-91 -81 -126 -107 -76 -56 -85 -85 -50 -158 35 -72 27 -259 -12 -299 -30 -30
-165 -75 -268 -90 -133 -18 -427 -29 -435 -15 -11 18 -19 407 -19 974 -1 553
3 758 19 960 17 225 24 283 34 289 3 2 31 7 61 10 56 7 96 13 140 21 14 3 39
8 55 10 55 9 170 36 199 47 l28 11 -6 74 c-7 78 -13 103 -26 103 -5 0 -43 36
-87 80 l-78 81 -85 -7 c-47 -3 -94 -8 -105 -10 -114 -21 -896 -21 -1010 0 -77
14 -151 16 -166 4z"/>
<path d="M3350 11729 c-340 -121 -617 -373 -805 -734 -65 -125 -120 -279 -140
-390 -2 -16 -7 -41 -10 -54 -32 -162 -20 -470 25 -607 6 -17 12 -40 14 -50 9
-41 71 -172 111 -235 58 -90 248 -289 350 -368 22 -17 45 -34 50 -38 31 -25
141 -74 210 -96 94 -29 129 -35 250 -43 84 -6 95 -4 167 24 217 84 430 238
605 437 57 66 67 83 64 112 -1 16 -227 243 -243 244 -29 3 -45 -5 -83 -40
-158 -145 -333 -221 -511 -222 -86 0 -106 3 -198 28 -47 14 -62 23 -81 52 -52
84 -105 292 -108 427 -2 75 -1 77 23 81 14 2 131 5 261 8 l235 5 18 -61 c13
-43 25 -64 41 -71 13 -6 26 -19 28 -30 3 -11 15 -22 26 -25 12 -3 21 -12 21
-19 0 -8 10 -19 23 -25 13 -6 27 -20 32 -32 8 -18 18 -22 50 -21 94 2 160 27
150 57 -2 7 -6 32 -10 57 -28 216 -27 328 5 465 13 59 7 91 -20 100 -11 3 -20
13 -20 21 0 8 -11 19 -24 25 -13 6 -27 20 -29 31 -3 11 -14 22 -25 25 -11 2
-24 15 -30 27 -8 18 -22 25 -58 30 -85 11 -95 9 -132 -34 -69 -81 -165 -107
-397 -109 -85 0 -156 3 -158 7 -6 11 19 126 49 221 30 99 81 211 103 228 19
15 121 67 136 69 5 1 29 7 53 13 44 12 213 16 267 6 72 -13 75 -15 75 -43 0
-15 7 -58 15 -95 12 -57 20 -74 55 -107 23 -22 46 -40 51 -40 5 0 9 -5 9 -11
0 -6 18 -28 41 -50 40 -38 41 -39 114 -36 41 1 79 7 86 14 7 7 14 31 16 55 11
127 75 384 101 410 5 5 36 12 69 15 84 8 94 18 99 101 3 65 2 71 -24 95 -31
30 -34 33 -105 104 -42 41 -61 53 -97 58 -25 4 -52 9 -60 10 -8 1 -40 6 -70 9
-30 4 -73 10 -95 13 -22 2 -58 6 -80 8 -327 28 -392 27 -485 -6z"/>
<path d="M5320 11729 c-77 -27 -255 -113 -295 -143 -217 -163 -332 -289 -460
-502 -98 -164 -178 -377 -200 -535 -3 -24 -8 -62 -12 -84 -7 -46 -6 -272 1
-327 21 -164 64 -310 119 -408 11 -19 25 -44 31 -55 53 -98 324 -369 434 -435
127 -75 267 -116 431 -126 88 -6 102 -4 166 20 82 31 188 87 275 146 58 38 65
40 91 28 15 -7 30 -21 33 -31 2 -10 13 -21 24 -24 11 -3 22 -14 25 -25 3 -11
14 -22 24 -24 10 -3 23 -15 28 -27 9 -19 19 -22 81 -25 86 -3 104 9 105 71 0
23 2 60 4 82 2 22 6 90 9 150 4 61 8 121 10 135 3 14 7 72 11 130 4 58 8 107
10 110 1 3 6 48 9 100 4 52 9 109 11 125 2 17 5 47 7 68 1 30 12 48 49 87 25
26 49 55 52 64 11 28 -44 109 -138 203 -101 100 -98 99 -165 58 -157 -95 -312
-133 -528 -130 -154 3 -157 2 -167 -54 -15 -87 -12 -99 48 -157 32 -29 57 -58
57 -64 0 -5 7 -10 15 -10 9 0 20 -11 27 -24 9 -21 22 -27 79 -36 l69 -12 1
-46 c1 -26 2 -65 4 -87 4 -53 7 -137 6 -151 -1 -6 -27 -23 -59 -37 -151 -68
-344 -77 -482 -24 -49 20 -58 28 -83 77 -73 147 -107 357 -102 645 1 105 5
201 8 215 3 14 8 43 12 65 16 112 61 254 120 382 42 88 195 146 380 144 123
-2 177 -11 181 -31 1 -8 8 -49 14 -90 14 -87 22 -106 50 -115 11 -3 20 -13 20
-21 0 -8 11 -20 25 -26 14 -6 25 -15 25 -20 0 -5 18 -27 40 -48 39 -37 43 -39
109 -39 78 0 100 11 106 54 24 180 48 288 82 380 20 54 16 52 135 70 42 7 49
19 53 100 l4 60 -93 92 c-104 105 -74 93 -351 129 -22 3 -60 7 -85 9 -25 2
-77 6 -116 10 -39 4 -121 8 -183 9 -100 2 -121 -1 -191 -25z"/>
<path d="M7373 11720 c-244 -93 -425 -226 -597 -439 -153 -190 -273 -435 -320
-656 -24 -113 -28 -143 -31 -280 -3 -180 10 -297 52 -435 53 -177 121 -285
289 -456 164 -166 242 -224 364 -272 114 -44 188 -60 320 -69 93 -5 97 -5 180
30 185 77 314 160 464 297 83 76 196 211 196 234 0 19 -83 110 -202 224 -51
48 -66 47 -129 -9 -219 -199 -487 -270 -716 -189 -32 11 -58 20 -60 20 -13 0
-86 204 -98 275 -4 22 -9 51 -12 65 -7 42 -19 143 -18 169 0 22 5 25 55 30 30
2 149 5 263 5 l208 1 19 -55 c10 -31 30 -64 44 -75 14 -12 26 -25 26 -31 0 -6
11 -16 25 -22 14 -6 25 -18 25 -27 0 -8 5 -15 11 -15 5 0 23 -14 39 -32 l29
-31 73 12 c101 16 105 23 84 151 -26 158 -23 292 11 428 l15 63 -93 94 c-83
82 -99 94 -139 100 -72 11 -80 9 -129 -43 -71 -77 -136 -94 -368 -99 -115 -2
-183 0 -183 6 0 26 33 165 57 236 47 143 80 201 132 233 103 64 255 88 416 67
28 -4 56 -7 63 -7 6 -1 12 -6 13 -12 0 -6 2 -19 4 -28 2 -9 6 -35 9 -56 11
-82 20 -98 111 -189 l91 -93 71 1 c86 1 98 11 108 89 15 125 68 348 93 387 8
13 70 27 107 25 11 -1 30 6 43 14 21 14 23 21 20 92 -3 68 -6 78 -25 87 -12 5
-24 18 -27 28 -2 10 -13 21 -24 24 -11 3 -22 14 -25 25 -3 11 -15 22 -26 25
-12 3 -21 11 -21 19 0 29 -20 34 -290 69 -112 15 -274 27 -397 30 -96 2 -107
0 -200 -35z"/>
<path d="M14401 11734 c-256 -87 -485 -255 -657 -484 -226 -299 -334 -617
-328 -966 2 -134 10 -205 36 -312 35 -145 97 -279 176 -379 70 -86 267 -279
338 -329 118 -84 326 -147 500 -153 61 -2 83 3 158 33 122 49 263 131 367 213
32 25 228 220 262 260 43 52 37 68 -62 168 -128 129 -146 146 -167 149 -11 2
-47 -22 -89 -58 -113 -99 -258 -178 -352 -192 -21 -3 -46 -8 -57 -11 -23 -7
-161 -5 -201 2 -67 13 -133 37 -148 53 -36 39 -96 216 -112 327 -3 23 -7 50
-9 62 -8 41 -10 123 -3 130 13 12 36 14 280 19 221 4 238 3 243 -13 22 -68 48
-108 127 -187 l88 -88 43 6 c142 22 135 8 108 201 -9 63 -9 258 0 305 3 19 11
57 17 84 13 56 8 83 -19 91 -10 3 -22 15 -25 25 -3 10 -15 22 -25 25 -10 3
-22 15 -25 25 -3 10 -15 22 -25 25 -10 3 -22 14 -25 25 -7 23 -25 30 -97 37
l-58 5 -47 -50 c-71 -75 -137 -93 -361 -100 -97 -2 -177 -1 -182 4 -12 12 29
195 63 284 54 144 70 165 149 204 100 49 201 65 342 54 60 -5 111 -10 113 -12
2 -2 8 -28 13 -57 18 -110 21 -124 36 -146 8 -13 21 -23 29 -23 8 0 15 -5 15
-11 0 -6 29 -39 64 -74 l64 -64 70 0 c39 0 77 6 86 12 8 7 18 35 21 62 21 171
71 374 99 403 8 8 44 17 81 22 71 9 84 18 86 60 0 14 2 42 4 64 3 36 -1 43
-89 131 -82 83 -97 94 -137 100 -24 3 -69 10 -99 15 -30 5 -84 12 -120 16 -36
4 -74 8 -85 9 -62 8 -223 18 -309 20 -79 1 -112 -3 -165 -21z"/>
<path d="M8406 11734 c-9 -8 -16 -25 -16 -37 0 -12 -3 -45 -6 -74 l-6 -52 88
-89 c74 -73 99 -92 144 -107 65 -21 79 -31 78 -53 0 -9 3 -84 8 -167 17 -285
8 -1375 -11 -1477 -2 -11 -5 -42 -6 -69 -3 -54 -11 -63 -65 -72 -17 -3 -69
-17 -117 -31 -97 -30 -98 -31 -85 -126 10 -67 23 -100 41 -100 8 0 19 -11 25
-25 6 -14 18 -25 26 -25 8 0 17 -9 21 -19 3 -11 15 -23 25 -26 10 -3 22 -15
25 -25 5 -16 39 -36 55 -33 30 6 94 14 250 28 55 5 462 6 510 1 206 -22 276
-24 290 -10 6 6 13 33 16 60 3 27 7 60 10 73 4 20 -9 38 -75 102 -45 43 -81
83 -81 88 0 5 -10 13 -22 17 -27 9 -19 7 -133 29 -49 10 -97 19 -105 20 -8 2
-18 4 -21 4 -11 2 -18 27 -33 133 -22 151 -26 189 -32 275 -2 43 -7 103 -9
133 -5 68 -8 731 -3 736 2 2 21 -27 43 -64 21 -37 133 -222 248 -412 522 -858
522 -857 552 -1003 3 -16 16 -32 30 -39 14 -6 25 -16 25 -21 0 -13 72 -83 82
-80 4 2 10 -7 13 -18 7 -22 47 -41 68 -33 34 12 360 19 432 9 17 -3 51 -7 77
-10 25 -3 77 -11 114 -19 106 -22 111 -19 130 117 l6 47 -93 93 c-83 82 -101
95 -154 111 -33 10 -63 21 -67 25 -16 14 -23 250 -23 816 0 330 4 645 8 700
13 188 22 273 30 281 2 3 58 18 124 34 176 43 190 52 176 122 -5 28 -5 28 21
17 14 -7 26 -18 26 -26 0 -7 11 -19 25 -25 14 -6 25 -18 25 -26 0 -7 9 -16 20
-19 11 -3 20 -8 20 -12 0 -25 30 -41 85 -47 33 -4 61 -8 63 -9 31 -27 38
-1337 8 -1591 -2 -16 -7 -60 -10 -99 -4 -38 -9 -81 -11 -95 -2 -14 -7 -45 -10
-70 -4 -25 -11 -65 -16 -90 -18 -79 -15 -94 28 -138 23 -23 46 -42 52 -42 6 0
11 -7 11 -15 0 -9 10 -20 23 -26 13 -6 27 -20 32 -32 8 -16 26 -25 70 -35 83
-18 97 -12 123 50 38 90 40 91 106 68 127 -43 332 -87 448 -96 63 -5 90 -2
145 16 192 62 371 176 533 339 314 317 470 677 475 1096 2 213 -25 353 -99
510 -49 103 -102 172 -231 300 -178 176 -242 216 -445 286 -47 16 -85 29 -85
28 0 -1 -41 6 -100 17 -111 21 -378 21 -920 -1 -49 -2 -153 -4 -230 -6 -182
-3 -195 -9 -190 -90 l3 -47 -94 96 -95 95 -82 -13 c-45 -7 -91 -14 -102 -16
-126 -24 -607 -22 -645 1 -20 13 -49 -33 -55 -86 -6 -52 -5 -57 19 -76 14 -12
26 -26 26 -32 0 -6 4 -11 8 -11 16 0 89 -78 104 -111 36 -75 64 -210 83 -389
3 -30 8 -68 10 -85 13 -100 25 -819 14 -829 -2 -2 -68 103 -147 233 -78 130
-168 278 -200 328 -320 516 -402 658 -402 693 0 14 61 50 83 50 28 0 40 40 30
101 -6 42 -13 56 -31 64 -12 5 -22 14 -22 19 0 5 -31 39 -69 76 -68 68 -70 68
-108 59 -123 -29 -547 -31 -723 -3 -19 3 -59 9 -89 14 -75 14 -97 12 -115 -6z
m3894 -425 c30 -6 87 -26 126 -45 67 -31 73 -37 102 -96 69 -140 112 -315 128
-511 9 -121 3 -396 -11 -447 -2 -8 -7 -35 -10 -60 -17 -128 -106 -387 -142
-416 -104 -82 -307 -112 -505 -75 -66 13 -66 13 -71 49 -7 51 -1 1339 7 1437
11 147 8 142 79 158 79 18 226 21 297 6z"/>
<path d="M15396 11728 c-19 -31 -30 -143 -16 -168 6 -11 17 -20 25 -20 8 0 15
-4 15 -9 0 -12 76 -91 88 -91 5 0 14 -10 19 -23 8 -17 28 -28 74 -42 35 -10
66 -20 68 -21 17 -13 26 -314 26 -849 0 -591 -13 -921 -37 -951 -4 -6 -27 -15
-51 -18 -79 -13 -182 -47 -199 -67 -12 -15 -14 -27 -8 -49 11 -37 10 -33 10
-70 0 -20 10 -41 30 -62 17 -17 30 -34 30 -38 0 -4 11 -12 24 -18 13 -6 27
-20 31 -31 3 -12 13 -21 22 -21 8 0 17 -9 20 -19 4 -17 55 -45 65 -36 7 7 101
19 236 30 54 5 468 5 532 0 52 -3 115 -10 205 -21 44 -5 73 9 79 41 15 82 16
134 2 146 -27 25 -41 38 -53 51 -7 7 -18 18 -25 25 -7 7 -18 18 -25 25 -7 7
-18 18 -25 25 -7 7 -18 19 -25 27 -12 14 -77 31 -203 52 -19 4 -42 8 -50 9 -8
2 -18 4 -21 4 -6 1 -26 84 -34 146 -3 22 -7 54 -10 70 -2 17 -7 64 -11 105 -3
41 -8 89 -10 105 -2 17 -7 217 -10 445 -6 413 -6 415 13 390 11 -14 23 -32 26
-40 4 -8 17 -32 29 -53 13 -20 88 -144 166 -275 79 -130 181 -298 227 -372
147 -237 306 -509 335 -573 15 -34 33 -85 39 -114 10 -47 48 -100 96 -131 5
-4 15 -16 22 -27 6 -11 16 -19 22 -17 6 1 15 -9 20 -22 12 -31 26 -35 86 -26
63 10 430 10 470 -1 17 -4 48 -10 70 -13 22 -3 62 -9 90 -15 80 -15 90 -4 100
109 l6 65 -93 92 c-83 81 -100 93 -153 108 -33 10 -63 20 -67 24 -29 28 -32
1442 -3 1656 2 17 6 54 10 84 3 29 7 57 10 61 2 4 26 10 52 14 27 3 90 18 141
33 103 29 117 42 108 101 -3 20 -5 50 -6 65 0 22 -21 50 -95 124 l-95 97 -118
-18 c-64 -9 -134 -20 -155 -23 -76 -10 -344 -10 -457 1 -105 11 -116 10 -132
-6 -10 -10 -18 -30 -18 -45 0 -16 -3 -38 -6 -50 -5 -18 9 -37 71 -100 43 -43
85 -94 93 -113 34 -82 62 -209 77 -355 4 -33 8 -76 10 -95 18 -170 28 -857 13
-842 -14 14 -158 254 -158 264 0 4 -4 8 -10 8 -5 0 -10 4 -10 10 0 5 -52 94
-116 197 -373 600 -439 714 -446 763 -3 22 5 29 55 53 l58 27 -2 48 c-3 55
-17 102 -30 102 -5 0 -44 36 -87 79 l-78 80 -39 -9 c-79 -17 -163 -23 -335
-24 -191 -1 -305 7 -450 29 -124 19 -127 19 -144 -7z"/>
<path d="M9564 8820 c-173 -71 -342 -181 -472 -309 -179 -176 -255 -339 -248
-531 4 -99 33 -172 111 -275 76 -100 291 -309 465 -452 91 -74 174 -142 185
-151 11 -9 50 -41 87 -70 140 -110 208 -215 209 -319 2 -265 -110 -423 -321
-451 -141 -20 -329 16 -477 91 -77 39 -92 56 -96 107 -6 74 7 104 65 146 79
56 133 77 182 71 63 -9 95 21 103 93 3 30 16 86 29 124 13 38 24 79 24 90 0
24 -169 199 -215 223 -70 37 -193 6 -282 -71 -105 -92 -226 -318 -258 -485
-32 -164 -35 -457 -6 -509 17 -30 179 -186 226 -216 134 -89 349 -171 525
-200 182 -31 190 -31 263 2 346 158 611 466 695 807 11 44 23 98 27 120 12 67
14 230 4 275 -15 65 -64 157 -126 234 -73 91 -318 333 -405 400 -36 28 -140
107 -229 176 -191 146 -228 180 -259 244 -71 148 -12 257 174 322 74 27 208
35 309 20 l47 -7 1 -67 c1 -37 1 -86 1 -109 -1 -36 5 -49 38 -83 21 -22 43
-40 49 -40 6 0 11 -4 11 -10 0 -5 20 -29 44 -53 l44 -44 67 2 c37 2 71 7 76
12 11 11 15 30 23 118 4 33 10 73 14 89 l8 29 84 -84 c83 -83 86 -85 162 -103
l77 -18 32 -56 c74 -131 198 -369 346 -665 l59 -117 -2 -163 c-2 -159 -11
-362 -19 -402 -2 -11 -4 -30 -4 -42 -1 -17 -9 -23 -43 -28 -80 -13 -173 -37
-197 -52 -21 -14 -23 -20 -17 -69 8 -71 16 -104 27 -104 12 0 149 -140 149
-153 0 -6 26 -7 73 -3 39 4 106 10 147 14 152 13 539 6 670 -13 59 -9 76 9 85
92 l7 63 -89 89 c-89 88 -112 102 -195 116 -21 3 -39 11 -39 18 -10 97 -18
269 -20 422 l-1 141 222 334 c332 499 373 561 379 565 4 2 25 6 48 10 58 8
152 33 182 48 23 11 26 18 24 60 -1 26 1 47 3 47 3 0 29 -24 58 -54 38 -39 63
-56 89 -61 l37 -7 1 -57 c1 -31 4 -83 6 -116 7 -108 6 -927 -1 -1065 -10 -186
-15 -243 -24 -252 -4 -4 -25 -11 -47 -17 -173 -42 -179 -47 -171 -118 7 -66
16 -103 25 -103 11 0 91 -77 91 -88 0 -5 11 -14 25 -20 14 -6 25 -18 25 -27 0
-20 42 -29 98 -21 184 27 595 27 783 0 42 -6 48 -4 62 17 8 13 18 49 21 79 7
54 6 56 -33 98 -22 23 -44 42 -49 42 -5 0 -14 11 -20 25 -6 14 -18 25 -26 25
-8 0 -18 9 -21 21 -8 24 -31 34 -112 48 -99 19 -106 20 -114 28 -8 8 -32 162
-43 273 -4 30 -9 208 -12 395 l-6 340 21 -27 c11 -14 21 -28 21 -31 0 -7 118
-203 290 -482 262 -426 314 -520 337 -609 11 -45 25 -69 55 -98 22 -21 44 -38
49 -38 5 0 9 -5 9 -11 0 -6 18 -28 40 -49 39 -38 42 -39 93 -33 133 17 375 7
503 -20 98 -21 115 -5 118 110 1 51 -2 59 -21 68 -13 5 -23 13 -23 17 0 10
-80 88 -90 88 -5 0 -11 9 -15 19 -6 18 -70 51 -100 51 -8 0 -15 1 -15 3 -15
76 -20 996 -7 1227 6 127 17 262 21 267 1 1 53 15 115 31 62 16 120 37 129 46
16 16 19 67 8 124 -3 12 -3 22 -1 22 2 0 42 -38 89 -85 47 -47 93 -85 104 -85
45 0 52 -18 59 -160 15 -288 8 -1068 -12 -1265 -2 -16 -4 -42 -4 -56 -1 -24
-7 -27 -98 -50 -55 -13 -106 -32 -116 -42 -19 -19 -19 -48 -3 -126 3 -13 46
-64 96 -113 l91 -91 62 7 c253 28 596 28 788 0 42 -6 48 -4 62 17 33 53 29
169 -7 169 -7 0 -18 11 -24 25 -6 14 -18 25 -25 25 -8 0 -19 11 -25 25 -6 14
-18 25 -25 25 -8 0 -19 11 -25 24 -10 23 -61 39 -184 60 -15 3 -32 7 -37 10
-10 7 -37 181 -47 309 -8 101 -16 702 -10 696 4 -4 87 -139 185 -300 98 -162
221 -365 274 -452 53 -87 97 -160 97 -162 0 -3 13 -25 29 -50 43 -68 87 -182
90 -233 1 -7 12 -18 26 -24 14 -6 25 -17 25 -25 0 -7 11 -19 25 -25 14 -6 25
-17 25 -25 0 -7 11 -19 25 -25 14 -6 25 -17 25 -24 0 -23 35 -33 91 -26 107
12 432 4 459 -13 3 -2 25 -6 50 -10 25 -4 47 -8 51 -10 16 -11 49 38 50 73 0
20 2 47 5 60 5 28 -11 62 -30 62 -7 0 -18 11 -24 25 -6 14 -18 25 -25 25 -8 0
-19 11 -25 25 -6 14 -18 25 -25 25 -8 0 -19 11 -24 23 -8 16 -26 28 -57 37
-26 7 -49 17 -52 22 -11 18 -18 274 -18 663 0 515 13 797 38 821 6 6 53 21
105 33 150 36 145 32 141 125 -2 59 -15 96 -33 96 -8 0 -20 11 -27 25 -7 14
-19 25 -25 25 -6 0 -18 11 -25 25 -7 14 -19 25 -27 25 -7 0 -18 11 -23 25 -8
21 -24 30 -51 27 -50 -6 -105 -15 -110 -18 -27 -16 -360 -23 -515 -10 -102 8
-101 9 -110 -67 -6 -48 2 -74 25 -82 11 -3 21 -15 24 -26 3 -11 15 -23 26 -26
11 -3 23 -14 26 -24 4 -10 10 -19 14 -19 12 0 29 -43 50 -128 22 -86 27 -118
46 -302 3 -25 8 -184 11 -355 l6 -310 -119 195 c-66 107 -180 292 -253 410
-186 301 -232 384 -223 405 2 6 23 20 46 30 41 19 42 22 45 72 l3 52 -69 71
c-38 38 -75 70 -81 70 -7 0 -10 4 -7 9 3 4 -3 16 -13 25 -17 16 -27 16 -103 5
-126 -19 -453 -16 -578 5 -127 22 -147 22 -167 3 -11 -12 -22 -67 -23 -120 0
-25 -2 -26 -20 -17 -11 6 -20 17 -20 25 0 8 -4 15 -8 15 -11 0 -92 79 -92 89
0 16 -46 28 -80 20 -146 -32 -374 -42 -581 -25 -111 9 -117 5 -125 -71 -5 -45
-3 -50 35 -90 21 -24 44 -43 50 -43 6 0 11 -5 11 -12 0 -6 9 -21 20 -33 31
-33 59 -137 80 -300 18 -144 20 -186 26 -490 4 -239 2 -296 -7 -280 -7 11 -49
79 -92 150 -44 72 -87 142 -96 157 -9 15 -89 145 -178 290 -172 280 -224 374
-217 392 3 7 24 21 47 31 41 19 42 22 45 72 3 49 1 54 -41 97 -24 25 -48 46
-54 46 -6 0 -13 9 -16 21 -3 11 -15 23 -26 26 -12 3 -21 11 -21 18 0 31 -26
37 -112 24 -153 -23 -469 -16 -641 15 -105 18 -119 7 -126 -97 -1 -15 -5 -16
-21 -7 -11 6 -20 17 -20 24 0 7 -11 18 -25 24 -14 6 -25 18 -25 25 0 22 -41
34 -85 26 -110 -20 -345 -28 -580 -18 -99 4 -100 4 -112 -22 -7 -14 -14 -41
-17 -61 -4 -30 1 -40 30 -67 19 -18 34 -37 34 -42 0 -5 7 -9 15 -9 8 0 15 -7
15 -17 0 -23 -66 -215 -102 -292 -104 -231 -132 -282 -143 -269 -29 31 -170
397 -158 408 4 4 61 17 125 30 65 12 123 29 129 36 7 9 9 35 5 75 -8 68 -20
99 -40 99 -7 0 -18 11 -24 25 -6 14 -18 25 -26 25 -8 0 -17 9 -21 19 -3 11
-14 23 -24 26 -10 3 -23 17 -30 32 -12 25 -13 26 -79 19 -266 -26 -628 -27
-787 -2 -11 2 -26 4 -33 5 -18 1 -3 26 58 100 47 56 50 64 50 115 0 52 -16 86
-41 86 -5 0 -9 6 -9 13 0 8 -11 20 -25 27 -13 7 -27 21 -30 31 -3 10 -15 21
-25 24 -10 3 -22 15 -25 25 -8 25 -82 44 -250 66 -27 3 -59 8 -69 10 -11 2
-76 6 -145 10 -70 3 -140 7 -157 8 -17 1 -71 -14 -120 -34z"/>
<path d="M3945 8331 c-171 -60 -294 -137 -426 -270 -93 -93 -183 -220 -247
-346 -184 -368 -181 -826 8 -1113 67 -100 292 -328 380 -383 129 -82 253 -121
424 -135 63 -5 81 -2 142 22 228 91 448 269 579 468 60 93 134 241 154 311 32
109 47 173 58 255 9 68 10 276 2 350 -19 160 -89 344 -166 439 -70 84 -257
264 -315 302 -111 71 -257 115 -418 123 -86 5 -103 3 -175 -23z m320 -476 c64
-22 68 -26 98 -89 65 -136 98 -320 97 -531 0 -113 -3 -147 -20 -247 -6 -32
-12 -68 -14 -80 -7 -41 -56 -178 -82 -229 -22 -45 -33 -54 -92 -82 -61 -29
-76 -31 -167 -32 -113 0 -187 20 -229 61 -27 28 -87 146 -106 209 -36 122 -45
202 -44 380 0 130 6 187 29 304 11 58 40 142 72 212 37 81 54 96 146 129 68
24 238 22 312 -5z"/>
<path d="M5133 8349 c-28 -10 -30 -14 -38 -86 -7 -64 4 -103 29 -103 7 0 18
-11 24 -25 6 -14 18 -25 26 -25 7 0 16 -9 19 -21 3 -11 14 -23 25 -26 11 -2
24 -15 30 -27 7 -15 26 -27 56 -36 40 -11 46 -16 46 -39 0 -14 4 -66 8 -116
15 -196 5 -1194 -13 -1291 -2 -11 -4 -28 -4 -40 -1 -17 -13 -23 -78 -38 -141
-34 -157 -46 -148 -114 11 -75 18 -86 106 -175 l90 -90 62 7 c252 28 588 28
785 0 61 -8 78 10 87 92 l7 65 -40 39 c-22 22 -44 40 -50 40 -5 0 -12 9 -15
21 -3 11 -14 23 -24 25 -10 3 -23 15 -28 27 -10 21 -73 42 -187 61 -22 4 -39
13 -42 24 -11 35 -33 200 -41 307 -11 132 -16 690 -6 679 4 -5 75 -119 156
-254 82 -135 164 -271 184 -303 20 -32 43 -70 52 -85 9 -15 53 -87 98 -161 91
-150 171 -304 171 -331 0 -33 22 -79 41 -85 10 -4 19 -13 19 -21 0 -8 11 -20
25 -26 13 -6 27 -19 30 -29 3 -10 15 -21 25 -24 10 -3 22 -15 25 -25 8 -26 29
-30 110 -21 117 13 316 6 435 -15 14 -3 48 -7 76 -11 61 -7 68 1 79 88 7 60
-4 99 -30 99 -8 0 -15 5 -15 10 0 6 -31 41 -69 79 -50 50 -78 70 -105 75 -19
4 -38 11 -41 16 -12 19 -18 265 -18 665 0 474 13 797 34 819 4 5 58 22 120 37
62 16 117 33 123 39 13 13 10 134 -4 161 -6 10 -17 19 -24 19 -7 0 -18 11 -24
24 -6 13 -20 27 -31 31 -12 3 -21 13 -21 21 0 8 -11 19 -25 24 -14 5 -25 16
-25 24 0 24 -29 34 -74 25 -22 -4 -61 -10 -86 -14 -25 -3 -58 -8 -75 -11 -57
-10 -340 -11 -428 -1 -105 11 -112 7 -121 -70 -5 -40 -2 -55 9 -65 9 -7 21
-19 28 -26 7 -7 18 -18 25 -25 65 -60 103 -140 118 -247 2 -19 6 -44 9 -55 6
-32 15 -105 20 -170 15 -198 24 -676 13 -669 -4 3 -30 44 -58 92 -28 48 -119
195 -201 327 -83 132 -153 248 -156 258 -3 9 -9 17 -14 17 -5 0 -9 5 -9 11 0
7 -16 36 -36 66 -58 88 -124 217 -116 230 4 6 26 19 50 28 44 18 45 21 42 90
-2 36 -11 48 -96 133 -88 88 -95 93 -126 87 -168 -31 -550 -24 -715 13 -21 5
-48 5 -60 1z"/>
<path d="M1016 8319 c-9 -14 -16 -52 -18 -89 -3 -59 -1 -66 19 -75 12 -5 26
-19 32 -32 6 -13 17 -23 26 -23 8 0 15 -4 15 -9 0 -5 17 -27 38 -49 32 -33 72
-54 125 -67 78 -18 72 -12 99 -98 14 -45 58 -185 98 -312 72 -230 189 -631
210 -715 6 -25 13 -52 15 -60 10 -35 46 -194 51 -228 3 -20 7 -44 10 -53 8
-30 -15 -69 -51 -86 -42 -20 -49 -37 -37 -91 8 -32 29 -60 99 -130 l89 -90 69
6 c107 9 562 5 635 -6 87 -13 102 -4 118 77 l13 62 -86 85 -86 84 19 33 c31
52 365 703 368 717 0 3 11 28 23 55 63 140 114 289 126 370 3 23 8 52 11 65 3
14 5 84 5 155 l0 130 100 24 c108 26 133 44 124 91 -2 14 -7 43 -9 65 -5 36
-26 65 -48 65 -4 0 -8 7 -8 15 0 9 -11 21 -25 27 -14 6 -25 17 -25 25 0 7 -11
19 -25 25 -14 6 -25 17 -25 24 0 22 -38 35 -83 29 -166 -21 -461 -28 -592 -13
-83 9 -90 2 -109 -99 -3 -15 12 -39 59 -87 80 -83 92 -120 89 -271 -2 -135
-11 -200 -45 -345 -38 -165 -130 -429 -227 -654 l-30 -70 -10 35 c-109 380
-147 513 -158 559 -1 8 -14 60 -28 115 -29 118 -72 322 -81 385 -4 24 -9 48
-11 52 -5 8 9 12 91 29 33 6 65 12 70 14 6 1 27 5 48 10 37 7 69 37 62 59 -2
6 -6 30 -9 54 -6 51 -22 82 -40 82 -8 0 -16 9 -19 21 -3 11 -14 23 -25 26 -11
3 -22 14 -25 25 -3 11 -14 22 -24 24 -10 3 -23 15 -28 27 -11 25 -28 25 -240
11 -205 -15 -461 -10 -651 12 -58 6 -63 5 -78 -17z"/>
</g>
</svg>
